Coordinates
version=1
nRows=11
nColumns=46
inDegrees=yes

Units are S.I. units (second, meters, Newtons, ...)
Angles are in degrees.

endheader
time	pelvis_tilt	pelvis_list	pelvis_rotation	pelvis_tx	pelvis_ty	pelvis_tz	bb_angle	bb_tx	bb_ty	bb_tz	hip_flexion_r	hip_adduction_r	hip_rotation_r	knee_angle_r	knee_angle_r_beta	ankle_angle_r	subtalar_angle_r	mtp_angle_r	crank_angle_r	hip_flexion_l	hip_adduction_l	hip_rotation_l	knee_angle_l	knee_angle_l_beta	ankle_angle_l	subtalar_angle_l	mtp_angle_l	crank_angle_l	lumbar_extension	lumbar_bending	lumbar_rotation	arm_flex_r	arm_add_r	arm_rot_r	elbow_flex_r	pro_sup_r	wrist_flex_r	wrist_dev_r	arm_flex_l	arm_add_l	arm_rot_l	elbow_flex_l	pro_sup_l	wrist_flex_l	wrist_dev_l
      0.00500000	    -24.14483794	     -0.92860390	      0.66942719	      0.11485395	      1.13415219	     -0.25967332	      0.00000000	      0.50000000	      0.00000000	      0.25000000	     61.02884244	     -6.92156919	     -6.03650857	     70.03068271	      1.22226599	     12.48005279	     -2.64808566	      0.00000000	      0.00000000	     93.19668397	     -2.87142280	      2.17213294	     85.01166906	      1.48373353	      3.80637843	     -8.88412009	      0.00000000	      0.00000000	    -47.25903980	      4.26246487	     -0.88935283	     89.78465434	     10.10541704	     83.48385661	     45.03161643	     36.90749821	      0.00000000	      0.00000000	     89.82299074	      0.74325347	     20.09011015	     36.05785110	     22.97779083	      0.00000000	      0.00000000
      0.01000000	    -24.11898672	     -0.93778099	      0.63698505	      0.11461283	      1.13414306	     -0.25954755	      0.00000000	      0.50000000	      0.00000000	      0.25000000	     61.05913999	     -6.88350234	     -6.01628278	     70.11544528	      1.22374538	     12.48541254	     -2.64296316	      0.00000000	      0.00000000	     93.12404133	     -2.95710012	      2.15547149	     84.92049184	      1.48214218	      3.92512413	     -8.75717165	      0.00000000	      0.00000000	    -47.27962089	      4.26195212	     -0.93753117	     89.78511356	     10.24477017	     83.46194856	     47.82864387	     38.39253915	      0.00000000	      0.00000000	     89.82392977	      0.42519392	     20.78001409	     36.25164187	     22.12195223	      0.00000000	      0.00000000
      0.01500000	    -24.10045595	     -0.96491134	      0.65103941	      0.11434338	      1.13416619	     -0.25962082	      0.00000000	      0.50000000	      0.00000000	      0.25000000	     61.08525597	     -6.89894733	     -6.05522622	     70.19116047	      1.22506686	     12.49581685	     -2.65638721	      0.00000000	      0.00000000	     93.07221910	     -2.89355278	      2.19570759	     84.82889700	      1.48054355	      3.85768831	     -8.88823285	      0.00000000	      0.00000000	    -47.30660500	      4.32831308	     -0.94552792	     89.78575052	     10.31028007	     83.45256425	     50.11716900	     39.55265507	      0.00000000	      0.00000000	     89.82488028	      0.36025873	     20.80272652	     36.36333064	     21.77859844	      0.00000000	      0.00000000
      0.02000000	    -23.97920953	     -0.96314183	      0.65300437	      0.11416615	      1.13450184	     -0.25951902	      0.00000000	      0.50000000	      0.00000000	      0.25000000	     60.98387509	     -6.90244800	     -6.05979963	     70.24112516	      1.22593890	     12.52387488	     -2.62093878	      0.00000000	      0.00000000	     92.88441589	     -2.95736600	      2.15451879	     84.71804025	      1.47860874	      3.88449823	     -8.80096899	      0.00000000	      0.00000000	    -47.46534857	      4.34515831	     -1.06797846	     89.78853609	     11.17172281	     78.18775656	     51.38408070	     39.94983958	      0.00000000	      0.00000000	     89.82483524	      0.46688579	     20.05031422	     36.10419451	     22.95857207	      0.00000000	      0.00000000
      0.02500000	    -24.06000518	     -1.04533058	      0.57918095	      0.11384825	      1.13413865	     -0.25968058	      0.00000000	      0.50000000	      0.00000000	      0.25000000	     61.13028820	     -6.80813565	     -6.07449205	     70.31210572	      1.22717775	     12.51593366	     -2.69104094	      0.00000000	      0.00000000	     92.95536001	     -2.99863306	      2.27346898	     84.66254459	      1.47764016	      3.97869837	     -8.69477013	      0.00000000	      0.00000000	    -47.36938274	      4.39580605	     -0.88737870	     89.78651955	     10.49200404	     83.19222472	     53.22229853	     40.82393951	      0.00000000	      0.00000000	     89.82647889	      0.21974739	     20.75831243	     36.53124024	     22.00173097	      0.00000000	      0.00000000
      0.03000000	    -23.95944114	     -1.07445302	      0.59481535	      0.11369722	      1.13444229	     -0.25975337	      0.00000000	      0.50000000	      0.00000000	      0.25000000	     61.03592571	     -6.82634769	     -6.13013118	     70.33750842	      1.22762111	     12.49322170	     -2.60181071	      0.00000000	      0.00000000	     92.81111123	     -3.01398232	      2.25809320	     84.57548602	      1.47612070	      3.94947892	     -8.70450828	      0.00000000	      0.00000000	    -47.52945602	      4.47798066	     -1.09708862	     89.78963008	     11.66312951	     76.31649814	     56.04484198	     41.64621149	      0.00000000	      0.00000000	     89.82457729	      0.43920370	     19.07359299	     36.07302394	     24.63890263	      0.00000000	      0.00000000
      0.03500000	    -23.96073419	     -1.04865983	      0.57029694	      0.11341549	      1.13441230	     -0.25975091	      0.00000000	      0.50000000	      0.00000000	      0.25000000	     61.10466468	     -6.83618421	     -6.09138107	     70.41730491	      1.22901382	     12.49056743	     -2.60488415	      0.00000000	      0.00000000	     92.76952838	     -3.03384029	      2.22758596	     84.48974666	      1.47462426	      4.00561563	     -8.65166764	      0.00000000	      0.00000000	    -47.50816291	      4.39799608	     -0.89843865	     89.78757200	     10.51513863	     83.56155975	     58.07892733	     42.42250299	      0.00000000	      0.00000000	     89.82702008	      0.40804262	     20.43401279	     36.61746049	     20.87926166	      0.00000000	      0.00000000
      0.04000000	    -23.91693937	     -1.07007648	      0.54983899	      0.11315618	      1.13449748	     -0.25972689	      0.00000000	      0.50000000	      0.00000000	      0.25000000	     61.09493989	     -6.81427466	     -6.10379467	     70.46398321	      1.22982851	     12.48852668	     -2.59655945	      0.00000000	      0.00000000	     92.68489457	     -3.06013197	      2.24972836	     84.39758482	      1.47301574	      4.01452283	     -8.61218550	      0.00000000	      0.00000000	    -47.56035239	      4.42351385	     -0.92334286	     89.78796688	     10.67983834	     83.39686331	     58.96659244	     42.68132483	      0.00000000	      0.00000000	     89.82814795	      0.14620922	     21.02637383	     36.79314825	     20.29793423	      0.00000000	      0.00000000
      0.04500000	    -23.86457630	     -1.06801413	      0.52576655	      0.11290017	      1.13465233	     -0.25970918	      0.00000000	      0.50000000	      0.00000000	      0.25000000	     61.07643364	     -6.80446444	     -6.09503750	     70.50027192	      1.23046187	     12.46323372	     -2.58243805	      0.00000000	      0.00000000	     92.57355486	     -3.09335001	      2.22683092	     84.29762751	      1.47127115	      4.06495621	     -8.61608499	      0.00000000	      0.00000000	    -47.62893048	      4.43050081	     -0.96283471	     89.78835463	     10.77683461	     83.35962767	     59.09516559	     42.79820795	      0.00000000	      0.00000000	     89.82907640	     -0.01332701	     21.20931646	     36.94379764	     19.98985364	      0.00000000	      0.00000000
      0.05000000	    -23.67249012	     -1.06575624	      0.48123253	      0.11269298	      1.13509064	     -0.25967521	      0.00000000	      0.50000000	      0.00000000	      0.25000000	     60.90575116	     -6.79448913	     -6.11517297	     70.54629297	      1.23126509	     12.51771818	     -2.53133503	      0.00000000	      0.00000000	     92.32249781	     -3.15737210	      2.19068902	     84.21556999	      1.46983898	      4.06838036	     -8.69303831	      0.00000000	      0.00000000	    -47.87419239	      4.42945959	     -1.10520886	     89.79174778	     11.54927595	     78.43300056	     60.16031080	     43.01798415	      0.00000000	      0.00000000	     89.82900838	      0.02052372	     20.06390055	     36.85330151	     21.70660455	      0.00000000	      0.00000000
      0.05500000	    -23.75309763	     -1.07400341	      0.43451692	      0.11234086	      1.13489655	     -0.25963979	      0.00000000	      0.50000000	      0.00000000	      0.25000000	     61.05419747	     -6.76294982	     -6.09229831	     70.60570912	      1.23230209	     12.43417880	     -2.54829991	      0.00000000	      0.00000000	     92.37198968	     -3.18917647	      2.22153746	     84.13207207	      1.46838166	      4.15290808	     -8.57430897	      0.00000000	      0.00000000	    -47.76550321	      4.38879798	     -0.92233726	     89.78938169	     10.83198664	     83.43316322	     61.92820665	     43.47208457	      0.00000000	      0.00000000	     89.83083526	     -0.01130817	     20.96073916	     36.79742967	     21.29211950	      0.00000000	      0.00000000
